<svg version="1.1" preserveAspectRatio="none" xmlns="http://www.w3.org/2000/svg" width="500" height="500" viewBox="0 0 500 500"><rect width="100%" height="100%" fill="#0B0633" fill-opacity="1"/><svg viewBox="383 170.2797 380 142.7405" width="417" height="156.63891710526315" x="41.5px" y="171.6805px" xmlns="http://www.w3.org/2000/svg" xmlns:xlink="http://www.w3.org/1999/xlink" preserveAspectRatio="none"><defs></defs><style>.companyNamee35c8b2b-4542-4a4f-a332-0a82ad03b0f2 {fill:#F5F4F4;fill-opacity:1;}.icon1e35c8b2b-4542-4a4f-a332-0a82ad03b0f2 {fill:#FF4949;fill-opacity:1;}.icon2e35c8b2b-4542-4a4f-a332-0a82ad03b0f2 {fill:#4F53FF;fill-opacity:1;}.icon3-stre35c8b2b-4542-4a4f-a332-0a82ad03b0f2 {stroke:#EB63DD;stroke-opacity:1;}.icon3e35c8b2b-4542-4a4f-a332-0a82ad03b0f2 {fill:#EB63DD;fill-opacity:1;}.shapeStroke-stre35c8b2b-4542-4a4f-a332-0a82ad03b0f2 {stroke:#313131;stroke-opacity:1;}</style><g opacity="1" transform="rotate(0 383 184.5538)">
<svg width="131.8145" height="114.1924" x="383" y="184.5538" version="1.1" preserveAspectRatio="none" viewBox="7.916697025299072 16.481748580932617 84.16755676269531 72.91525268554688">
  <g transform="matrix(1 0 0 1 0 0)" class="icon1e35c8b2b-4542-4a4f-a332-0a82ad03b0f2"><g><path d="M91.442,32.155L50.849,16.548c-0.229-0.088-0.481-0.088-0.71-0.002L8.565,32.153c-0.382,0.143-0.638,0.504-0.648,0.912   c-0.01,0.408,0.229,0.78,0.603,0.942l15.423,6.668v6.95c0,0.552,0.448,1,1,1s1-0.448,1-1V41.54l24.15,10.441   c0.127,0.055,0.262,0.082,0.397,0.082c0.138,0,0.276-0.028,0.405-0.086l18.134-8.029v24.383   c-22.352,6.98-39.914-0.841-43.086-2.413v-12.23c0-0.553-0.448-1-1-1s-1,0.447-1,1v7.784H11.5c-0.552,0-1,0.447-1,1s0.448,1,1,1   h12.443v3.056c0,0.361,0.195,0.694,0.51,0.872c0.058,0.032,1.542,0.845,4.18,1.851H18.222c-0.552,0-1,0.447-1,1s0.448,1,1,1h16.716   c0.012,0,0.021-0.006,0.032-0.007c4.198,1.068,9.479,1.942,15.546,1.942c4.748,0,9.976-0.54,15.53-1.936h2.983v7.867l-3.38,3.599   c-0.175,0.186-0.271,0.43-0.271,0.685v4.996c0,0.553,0.447,1,1,1h9.161c0.553,0,1-0.447,1-1v-5.553c0-0.266-0.105-0.52-0.293-0.707   l-3.054-3.053c-0.391-0.391-1.023-0.391-1.414,0s-0.391,1.023,0,1.414l2.761,2.76v4.139h-7.161v-3.6l3.38-3.599   c0.175-0.186,0.271-0.43,0.271-0.685V71.25h10.346c0.553,0,1-0.447,1-1s-0.447-1-1-1h-8.819c1.483-0.539,2.982-1.135,4.499-1.809   c0.361-0.161,0.594-0.519,0.594-0.914v-3.056H88.5c0.553,0,1-0.447,1-1s-0.447-1-1-1H77.648v-21.34l13.841-6.128   c0.37-0.164,0.604-0.535,0.595-0.939C92.073,32.659,91.82,32.301,91.442,32.155z M75.648,65.874   c-1.559,0.675-3.099,1.272-4.619,1.802V43.062l4.619-2.045V65.874z M70.041,41.313l-19.179-9c-0.499-0.234-1.095-0.021-1.33,0.48   c-0.235,0.5-0.02,1.095,0.48,1.33l17.606,8.262l-17.134,7.586L25.334,39.098c-0.001-0.001-0.002-0.001-0.004-0.002l-13.743-5.941   l38.898-14.603l37.981,14.603L70.041,41.313z"></path><path d="M24.94,51.62c0.27,0,0.52-0.101,0.71-0.29c0.19-0.19,0.29-0.44,0.29-0.71c0-0.26-0.1-0.52-0.29-0.7   c-0.37-0.38-1.04-0.38-1.41,0c-0.19,0.18-0.3,0.44-0.3,0.7c0,0.27,0.11,0.52,0.3,0.71C24.42,51.52,24.68,51.62,24.94,51.62z"></path><path d="M30.5,59.805c0.552,0,1-0.447,1-1V47.43c0-0.552-0.448-1-1-1s-1,0.448-1,1v11.375C29.5,59.357,29.948,59.805,30.5,59.805z"></path><path d="M29.5,63.609c0,0.553,0.448,1,1,1s1-0.447,1-1v-1.138c0-0.553-0.448-1-1-1s-1,0.447-1,1V63.609z"></path><path d="M58.75,74.875H32.875c-0.552,0-1,0.447-1,1s0.448,1,1,1H58.75c0.553,0,1-0.447,1-1S59.303,74.875,58.75,74.875z"></path><path d="M64,74.875h-2.125c-0.553,0-1,0.447-1,1s0.447,1,1,1H64c0.553,0,1-0.447,1-1S64.553,74.875,64,74.875z"></path></g></g>
</svg>
</g><g opacity="1" transform="rotate(0 574.7656 184.5538)">
<svg width="188.2344" height="114.1924" x="574.7656" y="184.5538" version="1.1" preserveAspectRatio="none" viewBox="1.72 -31.28 190.96 115.84">
  <g transform="matrix(1 0 0 1 0 0)" class="companyNamee35c8b2b-4542-4a4f-a332-0a82ad03b0f2"><path id="id-e35c8b2b-4542-4a4f-a332-0a82ad03b0f2D6z1nYkh20" d="M15.88-28.88Q18.28-28.88 19.96-28.20Q21.64-27.52 23.24-26.28L23.24-26.28Q23.68-25.92 24-25.92L24-25.92Q24.80-25.92 25.04-28.32L25.04-28.32L25.96-28.32Q25.80-25.60 25.80-18.64L25.80-18.64L24.88-18.64Q24.52-21.60 23.92-23.16Q23.32-24.72 21.88-25.88L21.88-25.88Q20.88-26.84 19.56-27.34Q18.24-27.84 16.80-27.84L16.80-27.84Q12.76-27.84 10.80-23.90Q8.84-19.96 8.84-14.08L8.84-14.08Q8.84-8.24 10.88-4.32Q12.92-0.40 16.96-0.40L16.96-0.40Q18.32-0.40 19.66-0.90Q21-1.40 21.92-2.36L21.92-2.36Q23.40-3.48 23.98-5.16Q24.56-6.84 24.88-10.08L24.88-10.08L25.80-10.08Q25.80-2.84 25.96 0L25.96 0L25.04 0Q24.92-1.28 24.70-1.82Q24.48-2.36 24.08-2.36L24.08-2.36Q23.76-2.36 23.24-2.04L23.24-2.04Q21.44-0.76 19.80-0.10Q18.16 0.56 15.84 0.56L15.84 0.56Q11.60 0.56 8.42-1.16Q5.24-2.88 3.48-6.14Q1.72-9.40 1.72-13.92L1.72-13.92Q1.72-18.32 3.52-21.72Q5.32-25.12 8.54-27Q11.76-28.88 15.88-28.88L15.88-28.88Z M37.28-31.28L37.28-17.52Q39.08-21.24 43.80-21.24L43.80-21.24Q46.92-21.24 48.20-19.68L48.20-19.68Q48.88-18.92 49.18-17.70Q49.48-16.48 49.48-14.48L49.48-14.48L49.48-3.72Q49.48-2.08 50.04-1.46Q50.60-0.84 52.04-0.84L52.04-0.84L52.04 0Q47.88-0.16 46.76-0.16L46.76-0.16Q45.40-0.16 41.56 0L41.56 0L41.56-0.84Q42.76-0.84 43.24-1.46Q43.72-2.08 43.72-3.72L43.72-3.72L43.72-16.16Q43.72-17.80 43.18-18.64Q42.64-19.48 41.24-19.48L41.24-19.48Q39.56-19.48 38.42-18.18Q37.28-16.88 37.28-14.88L37.28-14.88L37.28-3.72Q37.28-2.08 37.76-1.46Q38.24-0.84 39.44-0.84L39.44-0.84L39.44 0Q35.60-0.16 34.48-0.16L34.48-0.16Q33.12-0.16 28.96 0L28.96 0L28.96-0.84Q30.36-0.84 30.94-1.46Q31.52-2.08 31.52-3.72L31.52-3.72L31.52-26.48Q31.52-28.32 30.94-29.16Q30.36-30 28.96-30L28.96-30L28.96-30.84Q30.24-30.72 31.44-30.72L31.44-30.72Q34.92-30.72 37.28-31.28L37.28-31.28Z M58.76 0.28Q56.20 0.28 54.94-1.04Q53.68-2.36 53.68-4.52L53.68-4.52Q53.68-6.32 54.62-7.50Q55.56-8.68 56.90-9.32Q58.24-9.96 60.32-10.68L60.32-10.68Q62.52-11.44 63.54-12.06Q64.56-12.68 64.56-13.76L64.56-13.76L64.56-16.88Q64.56-18.56 63.78-19.50Q63-20.44 61.36-20.44L61.36-20.44Q59.44-20.44 58.44-19.48L58.44-19.48Q59.56-19.08 60.18-18.28Q60.80-17.48 60.80-16.40L60.80-16.40Q60.80-15.04 59.88-14.24Q58.96-13.44 57.64-13.44L57.64-13.44Q56.24-13.44 55.48-14.32Q54.72-15.20 54.72-16.52L54.72-16.52Q54.72-17.64 55.26-18.42Q55.80-19.20 56.92-19.88L56.92-19.88Q58-20.52 59.58-20.88Q61.16-21.24 63.04-21.24L63.04-21.24Q65-21.24 66.44-20.84Q67.88-20.44 68.84-19.48L68.84-19.48Q69.72-18.60 70.02-17.32Q70.32-16.04 70.32-13.84L70.32-13.84L70.32-2.96Q70.32-2 70.50-1.60Q70.68-1.20 71.20-1.20L71.20-1.20Q71.80-1.20 72.64-1.88L72.64-1.88L73.04-1.20Q71.24 0.28 68.64 0.28L68.64 0.28Q66.44 0.28 65.56-0.60Q64.68-1.48 64.64-2.96L64.64-2.96Q62.64 0.28 58.76 0.28L58.76 0.28ZM61.84-2.28Q63.40-2.28 64.56-3.92L64.56-3.92L64.56-12.12Q64.08-11.32 62.52-10.36L62.52-10.36Q60.96-9.36 60.16-8.36Q59.36-7.36 59.36-5.48L59.36-5.48Q59.36-3.84 60.04-3.06Q60.72-2.28 61.84-2.28L61.84-2.28Z M106.36-3.72Q106.36-2.08 106.94-1.46Q107.52-0.84 108.92-0.84L108.92-0.84L108.92 0Q104.92-0.16 103.64-0.16L103.64-0.16Q102.52-0.16 98.68 0L98.68 0L98.68-0.84Q99.76-0.84 100.18-1.44Q100.60-2.04 100.60-3.72L100.60-3.72L100.60-16.16Q100.60-17.84 100.10-18.66Q99.60-19.48 98.20-19.48L98.20-19.48Q96.72-19.48 95.62-18.24Q94.52-17 94.32-15.20L94.32-15.20L94.32-14.48L94.32-3.72Q94.32-2.08 94.82-1.46Q95.32-0.84 96.64-0.84L96.64-0.84L96.64 0Q92.80-0.16 91.60-0.16L91.60-0.16Q90.48-0.16 86.64 0L86.64 0L86.64-0.84Q87.72-0.84 88.14-1.46Q88.56-2.08 88.56-3.72L88.56-3.72L88.56-16.16Q88.56-17.84 88.12-18.66Q87.68-19.48 86.40-19.48L86.40-19.48Q84.80-19.48 83.66-18.14Q82.52-16.80 82.52-14.84L82.52-14.84L82.52-3.72Q82.52-2.08 82.94-1.46Q83.36-0.84 84.44-0.84L84.44-0.84L84.44 0Q80.92-0.16 79.72-0.16L79.72-0.16Q78.52-0.16 74.20 0L74.20 0L74.20-0.84Q75.64-0.84 76.20-1.46Q76.76-2.08 76.76-3.72L76.76-3.72L76.76-16.32Q76.76-18.16 76.20-19Q75.64-19.84 74.20-19.84L74.20-19.84L74.20-20.68Q75.48-20.56 76.68-20.56L76.68-20.56Q80.24-20.56 82.52-21.12L82.52-21.12L82.52-17.52Q84.28-21.24 88.72-21.24L88.72-21.24Q91.76-21.24 93.12-19.68L93.12-19.68Q93.88-18.88 94.12-17.28L94.12-17.28Q95.16-19.44 96.84-20.34Q98.52-21.24 100.76-21.24L100.76-21.24Q103.80-21.24 105.16-19.68L105.16-19.68Q105.80-18.96 106.08-17.72Q106.36-16.48 106.36-14.48L106.36-14.48L106.36-3.72Z M124.76-21.24Q126.84-21.24 128.46-20.12Q130.08-19 131-16.76Q131.92-14.52 131.92-11.28L131.92-11.28Q131.92-5.56 129.42-2.50Q126.92 0.56 122.64 0.56L122.64 0.56Q121.44 0.56 120.38 0.24Q119.32-0.08 118.56-0.72L118.56-0.72L118.56 3.28Q118.56 5.04 119.44 5.72Q120.32 6.40 122.16 6.40L122.16 6.40L122.16 7.24L121.08 7.20Q116.64 7.08 115.44 7.08L115.44 7.08Q114.24 7.08 110.40 7.24L110.40 7.24L110.40 6.40Q111.72 6.40 112.26 5.82Q112.80 5.24 112.80 3.68L112.80 3.68L112.80-16.32Q112.80-18.16 112.22-19Q111.64-19.84 110.24-19.84L110.24-19.84L110.24-20.68Q111.52-20.56 112.72-20.56L112.72-20.56Q116.20-20.56 118.56-21.12L118.56-21.12L118.56-17.44Q119.40-19.28 121-20.26Q122.60-21.24 124.76-21.24L124.76-21.24ZM121.08-0.52Q123.64-0.52 124.76-3.06Q125.88-5.60 125.88-10.48L125.88-10.48Q125.88-15.36 124.98-17.44Q124.08-19.52 122.40-19.52L122.40-19.52Q121.04-19.52 119.98-18.60Q118.92-17.68 118.56-16.04L118.56-16.04L118.56-1.60Q119.52-0.52 121.08-0.52L121.08-0.52Z M139.60-31Q141.28-31 142.26-30.18Q143.24-29.36 143.24-27.92L143.24-27.92Q143.24-26.48 142.26-25.66Q141.28-24.84 139.60-24.84L139.60-24.84Q137.92-24.84 136.94-25.66Q135.96-26.48 135.96-27.92L135.96-27.92Q135.96-29.36 136.94-30.18Q137.92-31 139.60-31L139.60-31ZM142.72-21.12L142.72-3.72Q142.72-2.08 143.30-1.46Q143.88-0.84 145.28-0.84L145.28-0.84L145.28 0Q141.28-0.16 139.96-0.16L139.96-0.16Q138.72-0.16 134.40 0L134.40 0L134.40-0.84Q135.84-0.84 136.40-1.46Q136.96-2.08 136.96-3.72L136.96-3.72L136.96-16.32Q136.96-18.16 136.40-19Q135.84-19.84 134.40-19.84L134.40-19.84L134.40-20.68Q135.68-20.56 136.88-20.56L136.88-20.56Q140.44-20.56 142.72-21.12L142.72-21.12Z M157.32-21.24Q161.92-21.24 164.52-18.62Q167.12-16 167.12-10.32L167.12-10.32Q167.12-4.64 164.52-2.04Q161.92 0.56 157.32 0.56L157.32 0.56Q152.76 0.56 150.14-2.04Q147.52-4.64 147.52-10.32L147.52-10.32Q147.52-16 150.14-18.62Q152.76-21.24 157.32-21.24L157.32-21.24ZM157.32-20.44Q155.60-20.44 154.58-17.94Q153.56-15.44 153.56-10.32L153.56-10.32Q153.56-5.20 154.58-2.72Q155.60-0.24 157.32-0.24L157.32-0.24Q159.08-0.24 160.08-2.70Q161.08-5.16 161.08-10.32L161.08-10.32Q161.08-15.48 160.06-17.96Q159.04-20.44 157.32-20.44L157.32-20.44Z M184.48-21.24Q187.52-21.24 188.88-19.68L188.88-19.68Q189.56-18.92 189.84-17.72Q190.12-16.52 190.12-14.48L190.12-14.48L190.12-3.72Q190.12-2.08 190.70-1.46Q191.28-0.84 192.68-0.84L192.68-0.84L192.68 0Q188.68-0.16 187.40-0.16L187.40-0.16Q186.20-0.16 182.20 0L182.20 0L182.20-0.84Q183.40-0.84 183.88-1.46Q184.36-2.08 184.36-3.72L184.36-3.72L184.36-16.16Q184.36-17.80 183.82-18.64Q183.28-19.48 181.88-19.48L181.88-19.48Q180.24-19.48 179.08-18.14Q177.92-16.80 177.92-14.84L177.92-14.84L177.92-3.72Q177.92-2.08 178.40-1.46Q178.88-0.84 180.08-0.84L180.08-0.84L180.08 0Q176.40-0.16 175.12-0.16L175.12-0.16Q173.92-0.16 169.60 0L169.60 0L169.60-0.84Q171.04-0.84 171.60-1.46Q172.16-2.08 172.16-3.72L172.16-3.72L172.16-16.32Q172.16-18.16 171.60-19Q171.04-19.84 169.60-19.84L169.60-19.84L169.60-20.68Q170.88-20.56 172.08-20.56L172.08-20.56Q175.64-20.56 177.92-21.12L177.92-21.12L177.92-17.52Q179.72-21.24 184.48-21.24L184.48-21.24Z M10.88 13.16Q12.96 13.16 14.20 13.56Q15.44 13.96 16.72 14.72L16.72 14.72Q17.16 14.96 17.50 15.12Q17.84 15.28 18.08 15.28L18.08 15.28Q18.44 15.28 18.64 14.86Q18.84 14.44 18.96 13.52L18.96 13.52L19.88 13.52Q19.68 16.20 19.68 22.64L19.68 22.64L18.76 22.64Q18.60 20.48 17.78 18.52Q16.96 16.56 15.46 15.34Q13.96 14.12 11.96 14.12L11.96 14.12Q10 14.12 8.78 15.22Q7.56 16.32 7.56 18.20L7.56 18.20Q7.56 19.60 8.16 20.64Q8.76 21.68 9.84 22.54Q10.92 23.40 13.16 24.88L13.16 24.88L14.44 25.76Q16.80 27.32 18.16 28.48Q19.52 29.64 20.38 31.18Q21.24 32.72 21.24 34.76L21.24 34.76Q21.24 37.32 19.92 39.06Q18.60 40.80 16.34 41.68Q14.08 42.56 11.32 42.56L11.32 42.56Q9.08 42.56 7.60 42.16Q6.12 41.76 4.88 41.08L4.88 41.08Q4 40.52 3.52 40.52L3.52 40.52Q3.16 40.52 2.96 40.94Q2.76 41.36 2.64 42.28L2.64 42.28L1.72 42.28Q1.88 39.76 1.88 31.48L1.88 31.48L2.80 31.48Q3.08 35.96 4.80 38.74Q6.52 41.52 10.08 41.52L10.08 41.52Q12.24 41.52 13.64 40.36Q15.04 39.20 15.04 37.04L15.04 37.04Q15.04 34.80 13.60 33.20Q12.16 31.60 9.04 29.60L9.04 29.60Q6.64 28.04 5.20 26.88Q3.76 25.72 2.84 24.14Q1.92 22.56 1.92 20.48L1.92 20.48Q1.92 18.08 3.14 16.42Q4.36 14.76 6.40 13.96Q8.44 13.16 10.88 13.16L10.88 13.16Z M38.20 20.76Q40.28 20.76 41.90 21.88Q43.52 23 44.44 25.24Q45.36 27.48 45.36 30.72L45.36 30.72Q45.36 36.44 42.86 39.50Q40.36 42.56 36.08 42.56L36.08 42.56Q34.88 42.56 33.82 42.24Q32.76 41.92 32 41.28L32 41.28L32 45.28Q32 47.04 32.88 47.72Q33.76 48.40 35.60 48.40L35.60 48.40L35.60 49.24L34.52 49.20Q30.08 49.08 28.88 49.08L28.88 49.08Q27.68 49.08 23.84 49.24L23.84 49.24L23.84 48.40Q25.16 48.40 25.70 47.82Q26.24 47.24 26.24 45.68L26.24 45.68L26.24 25.68Q26.24 23.84 25.66 23Q25.08 22.16 23.68 22.16L23.68 22.16L23.68 21.32Q24.96 21.44 26.16 21.44L26.16 21.44Q29.64 21.44 32 20.88L32 20.88L32 24.56Q32.84 22.72 34.44 21.74Q36.04 20.76 38.20 20.76L38.20 20.76ZM34.52 41.48Q37.08 41.48 38.20 38.94Q39.32 36.40 39.32 31.52L39.32 31.52Q39.32 26.64 38.42 24.56Q37.52 22.48 35.84 22.48L35.84 22.48Q34.48 22.48 33.42 23.40Q32.36 24.32 32 25.96L32 25.96L32 40.40Q32.96 41.48 34.52 41.48L34.52 41.48Z M58.16 20.76Q62.76 20.76 65.36 23.38Q67.96 26 67.96 31.68L67.96 31.68Q67.96 37.36 65.36 39.96Q62.76 42.56 58.16 42.56L58.16 42.56Q53.60 42.56 50.98 39.96Q48.36 37.36 48.36 31.68L48.36 31.68Q48.36 26 50.98 23.38Q53.60 20.76 58.16 20.76L58.16 20.76ZM58.16 21.56Q56.44 21.56 55.42 24.06Q54.40 26.56 54.40 31.68L54.40 31.68Q54.40 36.80 55.42 39.28Q56.44 41.76 58.16 41.76L58.16 41.76Q59.92 41.76 60.92 39.30Q61.92 36.84 61.92 31.68L61.92 31.68Q61.92 26.52 60.90 24.04Q59.88 21.56 58.16 21.56L58.16 21.56Z M84.20 20.76Q86 20.76 86.92 21.84Q87.84 22.92 87.84 24.44L87.84 24.44Q87.84 25.92 86.98 26.86Q86.12 27.80 84.72 27.80L84.72 27.80Q83.36 27.80 82.56 27.10Q81.76 26.40 81.76 25.24L81.76 25.24Q81.76 23.32 83.52 22.12L83.52 22.12Q83.36 22.08 83.04 22.08L83.04 22.08Q82.64 22.08 82.40 22.16L82.40 22.16Q80.88 22.40 79.82 24Q78.76 25.60 78.76 27.28L78.76 27.28L78.76 37.88Q78.76 39.72 79.66 40.44Q80.56 41.16 82.52 41.16L82.52 41.16L82.52 42Q81.96 42 81.60 41.96L81.60 41.96Q77.52 41.84 76.16 41.84L76.16 41.84Q75.08 41.84 71.24 41.96L71.24 41.96Q70.92 42 70.44 42L70.44 42L70.44 41.16Q71.88 41.16 72.44 40.54Q73 39.92 73 38.28L73 38.28L73 25.68Q73 23.84 72.44 23Q71.88 22.16 70.44 22.16L70.44 22.16L70.44 21.32Q71.72 21.44 72.92 21.44L72.92 21.44Q76.48 21.44 78.76 20.88L78.76 20.88L78.76 24.60Q79.52 22.88 80.96 21.82Q82.40 20.76 84.20 20.76L84.20 20.76Z M97.24 14.76L97.24 21.32L101.96 21.32L101.96 22.12L97.24 22.12L97.24 38.28Q97.24 39.48 97.66 39.98Q98.08 40.48 99.00 40.48L99.00 40.48Q100.72 40.48 101.72 38.08L101.72 38.08L102.40 38.44Q100.88 42.56 96.92 42.56L96.92 42.56Q94.28 42.56 92.92 41.20L92.92 41.20Q92.08 40.36 91.78 39.10Q91.48 37.84 91.48 35.64L91.48 35.64L91.48 22.12L88.12 22.12L88.12 21.32L91.48 21.32L91.48 16.04Q94.80 16.04 97.24 14.76L97.24 14.76Z M111.12 20.76Q112.64 20.76 113.92 21.14Q115.20 21.52 115.88 22L115.88 22Q116.28 22.28 116.60 22.28L116.60 22.28Q116.96 22.28 117.22 21.90Q117.48 21.52 117.56 20.80L117.56 20.80L118.40 20.80Q118.24 22.84 118.24 27.84L118.24 27.84L117.40 27.84Q117.04 25.20 115.82 23.42Q114.60 21.64 112.28 21.64L112.28 21.64Q111.08 21.64 110.30 22.32Q109.52 23 109.52 24.20L109.52 24.20Q109.52 25.56 110.44 26.54Q111.36 27.52 113.32 28.92L113.32 28.92L114.48 29.76Q116.92 31.60 118.08 33.04Q119.24 34.48 119.24 36.64L119.24 36.64Q119.24 38.40 118.22 39.76Q117.20 41.12 115.48 41.84Q113.76 42.56 111.68 42.56L111.68 42.56Q109.48 42.56 107.92 41.72L107.92 41.72Q106.64 41.08 106.08 40.88L106.08 40.88Q105.68 40.76 105.38 41.14Q105.08 41.52 104.92 42.28L104.92 42.28L104.08 42.28Q104.24 40 104.24 34.28L104.24 34.28L105.08 34.28Q105.88 41.64 110.48 41.64L110.48 41.64Q111.64 41.64 112.46 40.94Q113.28 40.24 113.28 38.80L113.28 38.80Q113.28 37.68 112.78 36.80Q112.28 35.92 111.52 35.24Q110.76 34.56 109.24 33.36L109.24 33.36Q107.44 31.92 106.50 31.04Q105.56 30.16 104.90 28.96Q104.24 27.76 104.24 26.28L104.24 26.28Q104.24 23.72 106.24 22.24Q108.24 20.76 111.12 20.76L111.12 20.76Z M10.88 55.16Q12.96 55.16 14.20 55.56Q15.44 55.96 16.72 56.72L16.72 56.72Q17.16 56.96 17.50 57.12Q17.84 57.28 18.08 57.28L18.08 57.28Q18.44 57.28 18.64 56.86Q18.84 56.44 18.96 55.52L18.96 55.52L19.88 55.52Q19.68 58.20 19.68 64.64L19.68 64.64L18.76 64.64Q18.60 62.48 17.78 60.52Q16.96 58.56 15.46 57.34Q13.96 56.12 11.96 56.12L11.96 56.12Q10 56.12 8.78 57.22Q7.56 58.32 7.56 60.20L7.56 60.20Q7.56 61.60 8.16 62.64Q8.76 63.68 9.84 64.54Q10.92 65.40 13.16 66.88L13.16 66.88L14.44 67.76Q16.80 69.32 18.16 70.48Q19.52 71.64 20.38 73.18Q21.24 74.72 21.24 76.76L21.24 76.76Q21.24 79.32 19.92 81.06Q18.60 82.80 16.34 83.68Q14.08 84.56 11.32 84.56L11.32 84.56Q9.08 84.56 7.60 84.16Q6.12 83.76 4.88 83.08L4.88 83.08Q4 82.52 3.52 82.52L3.52 82.52Q3.16 82.52 2.96 82.94Q2.76 83.36 2.64 84.28L2.64 84.28L1.72 84.28Q1.88 81.76 1.88 73.48L1.88 73.48L2.80 73.48Q3.08 77.96 4.80 80.74Q6.52 83.52 10.08 83.52L10.08 83.52Q12.24 83.52 13.64 82.36Q15.04 81.20 15.04 79.04L15.04 79.04Q15.04 76.80 13.60 75.20Q12.16 73.60 9.04 71.60L9.04 71.60Q6.64 70.04 5.20 68.88Q3.76 67.72 2.84 66.14Q1.92 64.56 1.92 62.48L1.92 62.48Q1.92 60.08 3.14 58.42Q4.36 56.76 6.40 55.96Q8.44 55.16 10.88 55.16L10.88 55.16Z M34.24 62.76Q35.72 62.76 37.04 63.08Q38.36 63.40 39.24 63.96L39.24 63.96Q40.28 64.60 40.86 65.58Q41.44 66.56 41.44 67.72L41.44 67.72Q41.44 69.12 40.56 70.02Q39.68 70.92 38.28 70.92L38.28 70.92Q36.88 70.92 36.04 70.12Q35.20 69.32 35.20 67.96L35.20 67.96Q35.20 66.76 35.96 65.88Q36.72 65 37.84 64.68L37.84 64.68Q37.52 64.24 36.86 63.98Q36.20 63.72 35.44 63.72L35.44 63.72Q33.04 63.72 31.70 66.34Q30.36 68.96 30.36 73.20L30.36 73.20Q30.36 77.48 31.88 79.36Q33.40 81.24 35.68 81.24L35.68 81.24Q37.04 81.24 38.42 80.52Q39.80 79.80 40.92 78L40.92 78L41.60 78.24Q40.80 80.84 38.80 82.70Q36.80 84.56 33.64 84.56L33.64 84.56Q29.52 84.56 26.92 81.84Q24.32 79.12 24.32 73.76L24.32 73.76Q24.32 70.24 25.60 67.76Q26.88 65.28 29.12 64.02Q31.36 62.76 34.24 62.76L34.24 62.76Z M51.80 52.72L51.80 66.48Q53.60 62.76 58.32 62.76L58.32 62.76Q61.44 62.76 62.72 64.32L62.72 64.32Q63.40 65.08 63.70 66.30Q64 67.52 64 69.52L64 69.52L64 80.28Q64 81.92 64.56 82.54Q65.12 83.16 66.56 83.16L66.56 83.16L66.56 84Q62.40 83.84 61.28 83.84L61.28 83.84Q59.92 83.84 56.08 84L56.08 84L56.08 83.16Q57.28 83.16 57.76 82.54Q58.24 81.92 58.24 80.28L58.24 80.28L58.24 67.84Q58.24 66.20 57.70 65.36Q57.16 64.52 55.76 64.52L55.76 64.52Q54.08 64.52 52.94 65.82Q51.80 67.12 51.80 69.12L51.80 69.12L51.80 80.28Q51.80 81.92 52.28 82.54Q52.76 83.16 53.96 83.16L53.96 83.16L53.96 84Q50.12 83.84 49.00 83.84L49.00 83.84Q47.64 83.84 43.48 84L43.48 84L43.48 83.16Q44.88 83.16 45.46 82.54Q46.04 81.92 46.04 80.28L46.04 80.28L46.04 57.52Q46.04 55.68 45.46 54.84Q44.88 54 43.48 54L43.48 54L43.48 53.16Q44.76 53.28 45.96 53.28L45.96 53.28Q49.44 53.28 51.80 52.72L51.80 52.72Z M78.32 62.76Q82.92 62.76 85.52 65.38Q88.12 68 88.12 73.68L88.12 73.68Q88.12 79.36 85.52 81.96Q82.92 84.56 78.32 84.56L78.32 84.56Q73.76 84.56 71.14 81.96Q68.52 79.36 68.52 73.68L68.52 73.68Q68.52 68 71.14 65.38Q73.76 62.76 78.32 62.76L78.32 62.76ZM78.32 63.56Q76.60 63.56 75.58 66.06Q74.56 68.56 74.56 73.68L74.56 73.68Q74.56 78.80 75.58 81.28Q76.60 83.76 78.32 83.76L78.32 83.76Q80.08 83.76 81.08 81.30Q82.08 78.84 82.08 73.68L82.08 73.68Q82.08 68.52 81.06 66.04Q80.04 63.56 78.32 63.56L78.32 63.56Z M100.92 62.76Q105.52 62.76 108.12 65.38Q110.72 68 110.72 73.68L110.72 73.68Q110.72 79.36 108.12 81.96Q105.52 84.56 100.92 84.56L100.92 84.56Q96.36 84.56 93.74 81.96Q91.12 79.36 91.12 73.68L91.12 73.68Q91.12 68 93.74 65.38Q96.36 62.76 100.92 62.76L100.92 62.76ZM100.92 63.56Q99.20 63.56 98.18 66.06Q97.16 68.56 97.16 73.68L97.16 73.68Q97.16 78.80 98.18 81.28Q99.20 83.76 100.92 83.76L100.92 83.76Q102.68 83.76 103.68 81.30Q104.68 78.84 104.68 73.68L104.68 73.68Q104.68 68.52 103.66 66.04Q102.64 63.56 100.92 63.56L100.92 63.56Z M120.96 52.68L120.96 80.28Q120.96 81.92 121.52 82.54Q122.08 83.16 123.52 83.16L123.52 83.16L123.52 84Q119.36 83.84 118.16 83.84L118.16 83.84Q116.80 83.84 112.64 84L112.64 84L112.64 83.16Q114.04 83.16 114.62 82.54Q115.20 81.92 115.20 80.28L115.20 80.28L115.20 57.48Q115.20 55.64 114.62 54.80Q114.04 53.96 112.64 53.96L112.64 53.96L112.64 53.12Q113.92 53.24 115.12 53.24L115.12 53.24Q118.60 53.24 120.96 52.68L120.96 52.68Z"/></g>
</svg>
</g><g opacity="1" transform="rotate(0 543.3626 170.2797)">
<svg width="2.8549" height="142.7405" x="543.3626" y="170.2797" version="1.1" preserveAspectRatio="none" viewBox="0 0 2.8549 142.7405">
  <defs><rect x="0" y="0" width="2.8549" height="142.7405" rx="0px" ry="0px" id="id-e35c8b2b-4542-4a4f-a332-0a82ad03b0f2tBXipXk0b1686235749518"></rect></defs><use class="companyNamee35c8b2b-4542-4a4f-a332-0a82ad03b0f2 shapeStroke-stre35c8b2b-4542-4a4f-a332-0a82ad03b0f2" style="stroke-width:0;" xlink:href="#id-e35c8b2b-4542-4a4f-a332-0a82ad03b0f2tBXipXk0b1686235749518"></use>
</svg>
</g></svg></svg>